<mxfile host="65bd71144e">
    <diagram id="8fcTnCrawXCK2MXK8BWG" name="Page-1">
        <mxGraphModel dx="1015" dy="671" grid="1" gridSize="10" guides="1" tooltips="1" connect="1" arrows="1" fold="1" page="1" pageScale="1" pageWidth="827" pageHeight="1169" math="0" shadow="0">
            <root>
                <mxCell id="0"/>
                <mxCell id="1" parent="0"/>
                <mxCell id="56" value="" style="edgeStyle=none;shape=flexArrow;html=1;entryX=0.571;entryY=1;entryDx=0;entryDy=0;entryPerimeter=0;" parent="1" source="48" target="5" edge="1">
                    <mxGeometry relative="1" as="geometry">
                        <mxPoint x="570" y="910" as="targetPoint"/>
                        <Array as="points">
                            <mxPoint x="647" y="960"/>
                            <mxPoint x="190" y="960"/>
                        </Array>
                    </mxGeometry>
                </mxCell>
                <mxCell id="48" value="&lt;b&gt;ConnectionView&lt;br&gt;.vue&lt;/b&gt;" style="rounded=1;whiteSpace=wrap;html=1;fontSize=24;fillColor=#1ba1e2;fontColor=#ffffff;strokeColor=#006EAF;" parent="1" vertex="1">
                    <mxGeometry x="460" y="1049" width="360" height="120" as="geometry"/>
                </mxCell>
                <mxCell id="54" style="edgeStyle=none;shape=flexArrow;html=1;entryX=0.467;entryY=1.017;entryDx=0;entryDy=0;entryPerimeter=0;" parent="1" source="49" target="5" edge="1">
                    <mxGeometry relative="1" as="geometry">
                        <mxPoint x="180" y="1010" as="targetPoint"/>
                    </mxGeometry>
                </mxCell>
                <mxCell id="49" value="&lt;b&gt;InscriptionView&lt;br&gt;.vue&lt;/b&gt;" style="rounded=1;whiteSpace=wrap;html=1;fontSize=24;fillColor=#1ba1e2;fontColor=#ffffff;strokeColor=#006EAF;" parent="1" vertex="1">
                    <mxGeometry y="1049" width="360" height="120" as="geometry"/>
                </mxCell>
                <mxCell id="47" style="edgeStyle=none;shape=flexArrow;html=1;exitX=0;exitY=0.5;exitDx=0;exitDy=0;" parent="1" source="43" edge="1">
                    <mxGeometry relative="1" as="geometry">
                        <mxPoint x="180" y="160" as="sourcePoint"/>
                        <mxPoint x="110" y="130" as="targetPoint"/>
                        <Array as="points"/>
                    </mxGeometry>
                </mxCell>
                <mxCell id="50" style="edgeStyle=none;shape=flexArrow;html=1;exitX=-0.014;exitY=0.658;exitDx=0;exitDy=0;exitPerimeter=0;entryX=0.413;entryY=-0.033;entryDx=0;entryDy=0;entryPerimeter=0;" parent="1" source="43" target="5" edge="1">
                    <mxGeometry relative="1" as="geometry">
                        <mxPoint x="100" y="550" as="targetPoint"/>
                        <Array as="points">
                            <mxPoint x="100" y="239"/>
                        </Array>
                    </mxGeometry>
                </mxCell>
                <mxCell id="43" value="&lt;b&gt;RecipeView&lt;/b&gt;&lt;br&gt;&lt;b&gt;.vue&lt;/b&gt;&lt;br&gt;(appel API&amp;nbsp; :id)" style="rounded=1;whiteSpace=wrap;html=1;fontSize=24;fillColor=#1ba1e2;fontColor=#ffffff;strokeColor=#006EAF;" parent="1" vertex="1">
                    <mxGeometry x="220" y="160" width="360" height="120" as="geometry"/>
                </mxCell>
                <mxCell id="46" value="RecipeComponent&lt;br&gt;.vue" style="rounded=1;whiteSpace=wrap;html=1;fontSize=24;fillColor=#60a917;fontColor=#ffffff;strokeColor=#2D7600;" parent="1" vertex="1">
                    <mxGeometry width="240" height="120" as="geometry"/>
                </mxCell>
                <mxCell id="5" value="HeaderComponent&lt;br&gt;.vue" style="rounded=1;whiteSpace=wrap;html=1;fontSize=24;fillColor=#60a917;fontColor=#ffffff;strokeColor=#2D7600;" parent="1" vertex="1">
                    <mxGeometry y="560" width="240" height="120" as="geometry"/>
                </mxCell>
                <mxCell id="6" value="FooterComponent&lt;br&gt;.vue" style="rounded=1;whiteSpace=wrap;html=1;fontSize=24;fillColor=#60a917;fontColor=#ffffff;strokeColor=#2D7600;" parent="1" vertex="1">
                    <mxGeometry x="560" y="550" width="240" height="120" as="geometry"/>
                </mxCell>
                <mxCell id="25" value="" style="edgeStyle=none;shape=flexArrow;html=1;fontSize=24;exitX=1;exitY=0.5;exitDx=0;exitDy=0;entryX=0.5;entryY=0;entryDx=0;entryDy=0;" parent="1" source="2" target="6" edge="1">
                    <mxGeometry relative="1" as="geometry">
                        <mxPoint x="710" y="469" as="targetPoint"/>
                    </mxGeometry>
                </mxCell>
                <mxCell id="4" value="" style="group" parent="1" vertex="1" connectable="0">
                    <mxGeometry x="220" y="319" width="360" height="120" as="geometry"/>
                </mxCell>
                <mxCell id="2" value="" style="rounded=1;whiteSpace=wrap;html=1;fillColor=#1ba1e2;fontColor=#ffffff;strokeColor=#006EAF;" parent="4" vertex="1">
                    <mxGeometry width="360" height="120" as="geometry"/>
                </mxCell>
                <mxCell id="3" value="&lt;span style=&quot;font-size: 24px&quot;&gt;&lt;b&gt;HomeView.vue&lt;/b&gt;&lt;/span&gt;" style="text;html=1;strokeColor=none;fillColor=none;align=center;verticalAlign=middle;whiteSpace=wrap;rounded=0;" parent="4" vertex="1">
                    <mxGeometry x="79" y="40" width="190" height="40" as="geometry"/>
                </mxCell>
                <mxCell id="7" value="ArticlesComponent&lt;br&gt;.vue&lt;br&gt;&lt;br&gt;recipes = Array&lt;br&gt;(appel API)" style="rounded=1;whiteSpace=wrap;html=1;fontSize=24;fillColor=#60a917;fontColor=#ffffff;strokeColor=#2D7600;" parent="1" vertex="1">
                    <mxGeometry x="280" y="479" width="240" height="240" as="geometry"/>
                </mxCell>
                <mxCell id="8" value="ArticleComponent&lt;br&gt;.vue" style="rounded=1;whiteSpace=wrap;html=1;fontSize=24;fillColor=#60a917;fontColor=#ffffff;strokeColor=#2D7600;" parent="1" vertex="1">
                    <mxGeometry x="570" y="760" width="240" height="120" as="geometry"/>
                </mxCell>
                <mxCell id="20" value="" style="edgeStyle=none;shape=flexArrow;html=1;fontSize=24;exitX=0.5;exitY=1;exitDx=0;exitDy=0;entryX=0.5;entryY=0;entryDx=0;entryDy=0;" parent="1" source="7" target="26" edge="1">
                    <mxGeometry relative="1" as="geometry"/>
                </mxCell>
                <mxCell id="21" value="" style="edgeStyle=none;shape=flexArrow;html=1;fontSize=24;" parent="1" target="7" edge="1">
                    <mxGeometry relative="1" as="geometry">
                        <mxPoint x="400" y="440" as="sourcePoint"/>
                    </mxGeometry>
                </mxCell>
                <mxCell id="23" value="" style="edgeStyle=none;shape=flexArrow;html=1;fontSize=24;entryX=0.5;entryY=0;entryDx=0;entryDy=0;" parent="1" target="5" edge="1">
                    <mxGeometry relative="1" as="geometry">
                        <mxPoint x="210" y="379" as="sourcePoint"/>
                        <mxPoint x="110" y="469" as="targetPoint"/>
                    </mxGeometry>
                </mxCell>
                <mxCell id="53" style="edgeStyle=none;html=1;entryX=0;entryY=0.5;entryDx=0;entryDy=0;shape=flexArrow;" parent="1" source="26" target="8" edge="1">
                    <mxGeometry relative="1" as="geometry"/>
                </mxCell>
                <mxCell id="26" value="&lt;font style=&quot;font-size: 24px&quot;&gt;N fois ou&lt;br&gt;N = recipes.length&lt;br&gt;&lt;/font&gt;" style="ellipse;whiteSpace=wrap;html=1;" parent="1" vertex="1">
                    <mxGeometry x="280" y="754.5" width="240" height="131" as="geometry"/>
                </mxCell>
                <mxCell id="58" value="" style="edgeStyle=none;html=1;fontSize=24;exitX=0.5;exitY=1;exitDx=0;exitDy=0;" parent="1" source="57" target="48" edge="1">
                    <mxGeometry relative="1" as="geometry"/>
                </mxCell>
                <mxCell id="62" value="" style="edgeStyle=none;html=1;fontSize=24;entryX=0.571;entryY=-0.019;entryDx=0;entryDy=0;entryPerimeter=0;" parent="1" source="57" target="49" edge="1">
                    <mxGeometry relative="1" as="geometry">
                        <mxPoint x="580" y="940" as="targetPoint"/>
                    </mxGeometry>
                </mxCell>
                <mxCell id="64" value="" style="edgeStyle=none;html=1;fontSize=24;entryX=1;entryY=0.5;entryDx=0;entryDy=0;exitX=0.5;exitY=0;exitDx=0;exitDy=0;" parent="1" source="57" target="43" edge="1">
                    <mxGeometry relative="1" as="geometry">
                        <mxPoint x="730" y="320" as="targetPoint"/>
                        <Array as="points">
                            <mxPoint x="820" y="890"/>
                            <mxPoint x="820" y="360"/>
                            <mxPoint x="820" y="220"/>
                        </Array>
                    </mxGeometry>
                </mxCell>
                <mxCell id="57" value="&lt;font style=&quot;font-size: 24px&quot;&gt;router.js&lt;/font&gt;" style="rounded=1;whiteSpace=wrap;html=1;fillColor=#a20025;fontColor=#ffffff;strokeColor=#6F0000;" parent="1" vertex="1">
                    <mxGeometry x="680" y="930" width="120" height="60" as="geometry"/>
                </mxCell>
                <mxCell id="65" style="edgeStyle=none;html=1;fontSize=24;" parent="1" edge="1">
                    <mxGeometry relative="1" as="geometry">
                        <mxPoint x="580" y="370" as="targetPoint"/>
                        <mxPoint x="820" y="370" as="sourcePoint"/>
                    </mxGeometry>
                </mxCell>
            </root>
        </mxGraphModel>
    </diagram>
</mxfile>